<?xml version="1.0" encoding="utf-8" standalone="no"?>
<!DOCTYPE svg PUBLIC "-//W3C//DTD SVG 1.1//EN"
  "http://www.w3.org/Graphics/SVG/1.1/DTD/svg11.dtd">
<svg xmlns:xlink="http://www.w3.org/1999/xlink" width="576pt" height="288pt" viewBox="0 0 576 288" xmlns="http://www.w3.org/2000/svg" version="1.1">
 <metadata>
  <rdf:RDF xmlns:dc="http://purl.org/dc/elements/1.1/" xmlns:cc="http://creativecommons.org/ns#" xmlns:rdf="http://www.w3.org/1999/02/22-rdf-syntax-ns#">
   <cc:Work>
    <dc:type rdf:resource="http://purl.org/dc/dcmitype/StillImage"/>
    <dc:date>2023-09-26T10:23:36.649019</dc:date>
    <dc:format>image/svg+xml</dc:format>
    <dc:creator>
     <cc:Agent>
      <dc:title>Matplotlib v3.6.1, https://matplotlib.org/</dc:title>
     </cc:Agent>
    </dc:creator>
   </cc:Work>
  </rdf:RDF>
 </metadata>
 <defs>
  <style type="text/css">*{stroke-linejoin: round; stroke-linecap: butt}</style>
 </defs>
 <g id="figure_1">
  <g id="patch_1">
   <path d="M 0 288 
L 576 288 
L 576 0 
L 0 0 
z
" style="fill: #ffffff"/>
  </g>
  <g id="axes_1">
   <g id="patch_2">
    <path d="M 72 256.32 
L 518.4 256.32 
L 518.4 34.56 
L 72 34.56 
z
" style="fill: #ffffff"/>
   </g>
   <g id="PolyCollection_1">
    <path d="M 72 256.32 
L 72 256.32 
L 116.64 256.32 
L 161.28 256.32 
L 205.92 256.32 
L 250.56 256.32 
L 295.2 256.32 
L 339.84 256.32 
L 384.48 256.32 
L 429.12 256.32 
L 473.76 256.32 
L 473.76 197.804876 
L 473.76 197.804876 
L 429.12 224.376587 
L 384.48 250.593895 
L 339.84 255.970645 
L 295.2 256.32 
L 250.56 256.32 
L 205.92 256.32 
L 161.28 256.32 
L 116.64 256.32 
L 72 256.32 
z
" clip-path="url(#pa961dc4aaa)"/>
   </g>
   <g id="PolyCollection_2">
    <path d="M 72 245.751158 
L 72 256.32 
L 116.64 256.32 
L 161.28 256.32 
L 205.92 256.32 
L 250.56 256.32 
L 295.2 256.32 
L 339.84 255.970645 
L 384.48 250.593895 
L 429.12 224.376587 
L 473.76 197.804876 
L 473.76 186.488481 
L 473.76 186.488481 
L 429.12 208.315315 
L 384.48 234.132091 
L 339.84 241.391041 
L 295.2 244.187837 
L 250.56 246.615202 
L 205.92 245.751158 
L 161.28 245.751158 
L 116.64 245.751158 
L 72 245.751158 
z
" clip-path="url(#pa961dc4aaa)" style="fill: #686868"/>
   </g>
   <g id="PolyCollection_3">
    <path d="M 72 243.565577 
L 72 245.751158 
L 116.64 245.751158 
L 161.28 245.751158 
L 205.92 245.751158 
L 250.56 246.615202 
L 295.2 244.187837 
L 339.84 241.391041 
L 384.48 234.132091 
L 429.12 208.315315 
L 473.76 186.488481 
L 473.76 184.768894 
L 473.76 184.768894 
L 429.12 206.465148 
L 384.48 230.657793 
L 339.84 237.240352 
L 295.2 234.739919 
L 250.56 240.892496 
L 205.92 243.565577 
L 161.28 243.565577 
L 116.64 243.565577 
L 72 243.565577 
z
" clip-path="url(#pa961dc4aaa)" style="fill: #9e9e9e"/>
   </g>
   <g id="PolyCollection_4">
    <path d="M 72 242.030622 
L 72 243.565577 
L 116.64 243.565577 
L 161.28 243.565577 
L 205.92 243.565577 
L 250.56 240.892496 
L 295.2 234.739919 
L 339.84 237.240352 
L 384.48 230.657793 
L 429.12 206.465148 
L 473.76 184.768894 
L 473.76 47.614484 
L 473.76 47.614484 
L 429.12 105.859621 
L 384.48 156.169826 
L 339.84 201.827925 
L 295.2 223.934766 
L 250.56 240.892496 
L 205.92 242.030622 
L 161.28 242.030622 
L 116.64 242.030622 
L 72 242.030622 
z
" clip-path="url(#pa961dc4aaa)" style="fill: #3c3c3c"/>
   </g>
   <g id="PolyCollection_5">
    <path d="M 72 242.030622 
L 72 242.030622 
L 116.64 242.030622 
L 161.28 242.030622 
L 205.92 242.030622 
L 250.56 240.892496 
L 295.2 223.934766 
L 339.84 201.827925 
L 384.48 156.169826 
L 429.12 105.859621 
L 473.76 47.614484 
L 473.76 47.614484 
L 473.76 47.614484 
L 429.12 105.859621 
L 384.48 156.169826 
L 339.84 201.827925 
L 295.2 223.934766 
L 250.56 240.892496 
L 205.92 242.030622 
L 161.28 242.030622 
L 116.64 242.030622 
L 72 242.030622 
z
" clip-path="url(#pa961dc4aaa)" style="fill: #282828"/>
   </g>
   <g id="PolyCollection_6">
    <path d="M 72 190.650689 
L 72 242.030622 
L 116.64 242.030622 
L 161.28 242.030622 
L 205.92 242.030622 
L 250.56 240.892496 
L 295.2 223.934766 
L 339.84 201.827925 
L 384.48 156.169826 
L 429.12 105.859621 
L 473.76 47.614484 
L 473.76 47.14472 
L 473.76 47.14472 
L 429.12 101.690742 
L 384.48 137.86131 
L 339.84 157.902622 
L 295.2 174.442625 
L 250.56 188.935561 
L 205.92 190.650689 
L 161.28 190.650689 
L 116.64 190.650689 
L 72 190.650689 
z
" clip-path="url(#pa961dc4aaa)" style="fill: #880000"/>
   </g>
   <g id="PolyCollection_7">
    <path d="M 72 180.091365 
L 72 190.650689 
L 116.64 190.650689 
L 161.28 190.650689 
L 205.92 190.650689 
L 250.56 188.935561 
L 295.2 174.442625 
L 339.84 157.902622 
L 384.48 137.86131 
L 429.12 101.690742 
L 473.76 47.14472 
L 473.76 47.14472 
L 473.76 47.14472 
L 429.12 101.690742 
L 384.48 137.855593 
L 339.84 156.929345 
L 295.2 169.741364 
L 250.56 181.230247 
L 205.92 180.091365 
L 161.28 180.091365 
L 116.64 180.091365 
L 72 180.091365 
z
" clip-path="url(#pa961dc4aaa)" style="fill: #472111"/>
   </g>
   <g id="PolyCollection_8">
    <path d="M 72 164.960169 
L 72 180.091365 
L 116.64 180.091365 
L 161.28 180.091365 
L 205.92 180.091365 
L 250.56 181.230247 
L 295.2 169.741364 
L 339.84 156.929345 
L 384.48 137.855593 
L 429.12 101.690742 
L 473.76 47.14472 
L 473.76 47.14472 
L 473.76 47.14472 
L 429.12 101.690742 
L 384.48 137.522633 
L 339.84 155.824766 
L 295.2 163.526674 
L 250.56 164.175941 
L 205.92 164.960169 
L 161.28 164.960169 
L 116.64 164.960169 
L 72 164.960169 
z
" clip-path="url(#pa961dc4aaa)" style="fill: #e54213"/>
   </g>
   <g id="PolyCollection_9">
    <path d="M 72 160.580922 
L 72 164.960169 
L 116.64 164.960169 
L 161.28 164.960169 
L 205.92 164.960169 
L 250.56 164.175941 
L 295.2 163.526674 
L 339.84 155.824766 
L 384.48 137.522633 
L 429.12 101.690742 
L 473.76 47.14472 
L 473.76 47.14472 
L 473.76 47.14472 
L 429.12 101.690742 
L 384.48 137.522633 
L 339.84 155.815945 
L 295.2 160.569448 
L 250.56 160.580652 
L 205.92 160.580922 
L 161.28 160.580922 
L 116.64 160.580922 
L 72 160.580922 
z
" clip-path="url(#pa961dc4aaa)" style="fill: #754937"/>
   </g>
   <g id="PolyCollection_10">
    <path d="M 518.4 256.32 
L 518.4 -41.566567 
L 473.76 -41.566567 
L 473.76 256.32 
L 473.76 256.32 
L 518.4 256.32 
z
" clip-path="url(#pa961dc4aaa)" style="fill: url(#h6a38f16a96)"/>
   </g>
   <g id="matplotlib.axis_1">
    <g id="xtick_1">
     <g id="line2d_1">
      <defs>
       <path id="m0940321a9e" d="M 0 0 
L 0 3.5 
" style="stroke: #000000; stroke-width: 0.8"/>
      </defs>
      <g>
       <use xlink:href="#m0940321a9e" x="72" y="256.32" style="stroke: #000000; stroke-width: 0.8"/>
      </g>
     </g>
     <g id="text_1">
      <!-- 2.0 -->
      <g transform="translate(64.048438 270.918437) scale(0.1 -0.1)">
       <defs>
        <path id="DejaVuSans-32" d="M 1228 531 
L 3431 531 
L 3431 0 
L 469 0 
L 469 531 
Q 828 903 1448 1529 
Q 2069 2156 2228 2338 
Q 2531 2678 2651 2914 
Q 2772 3150 2772 3378 
Q 2772 3750 2511 3984 
Q 2250 4219 1831 4219 
Q 1534 4219 1204 4116 
Q 875 4013 500 3803 
L 500 4441 
Q 881 4594 1212 4672 
Q 1544 4750 1819 4750 
Q 2544 4750 2975 4387 
Q 3406 4025 3406 3419 
Q 3406 3131 3298 2873 
Q 3191 2616 2906 2266 
Q 2828 2175 2409 1742 
Q 1991 1309 1228 531 
z
" transform="scale(0.015625)"/>
        <path id="DejaVuSans-2e" d="M 684 794 
L 1344 794 
L 1344 0 
L 684 0 
L 684 794 
z
" transform="scale(0.015625)"/>
        <path id="DejaVuSans-30" d="M 2034 4250 
Q 1547 4250 1301 3770 
Q 1056 3291 1056 2328 
Q 1056 1369 1301 889 
Q 1547 409 2034 409 
Q 2525 409 2770 889 
Q 3016 1369 3016 2328 
Q 3016 3291 2770 3770 
Q 2525 4250 2034 4250 
z
M 2034 4750 
Q 2819 4750 3233 4129 
Q 3647 3509 3647 2328 
Q 3647 1150 3233 529 
Q 2819 -91 2034 -91 
Q 1250 -91 836 529 
Q 422 1150 422 2328 
Q 422 3509 836 4129 
Q 1250 4750 2034 4750 
z
" transform="scale(0.015625)"/>
       </defs>
       <use xlink:href="#DejaVuSans-32"/>
       <use xlink:href="#DejaVuSans-2e" x="63.623047"/>
       <use xlink:href="#DejaVuSans-30" x="95.410156"/>
      </g>
     </g>
    </g>
    <g id="xtick_2">
     <g id="line2d_2">
      <g>
       <use xlink:href="#m0940321a9e" x="116.64" y="256.32" style="stroke: #000000; stroke-width: 0.8"/>
      </g>
     </g>
     <g id="text_2">
      <!-- 1.8 -->
      <g transform="translate(108.688437 270.918437) scale(0.1 -0.1)">
       <defs>
        <path id="DejaVuSans-31" d="M 794 531 
L 1825 531 
L 1825 4091 
L 703 3866 
L 703 4441 
L 1819 4666 
L 2450 4666 
L 2450 531 
L 3481 531 
L 3481 0 
L 794 0 
L 794 531 
z
" transform="scale(0.015625)"/>
        <path id="DejaVuSans-38" d="M 2034 2216 
Q 1584 2216 1326 1975 
Q 1069 1734 1069 1313 
Q 1069 891 1326 650 
Q 1584 409 2034 409 
Q 2484 409 2743 651 
Q 3003 894 3003 1313 
Q 3003 1734 2745 1975 
Q 2488 2216 2034 2216 
z
M 1403 2484 
Q 997 2584 770 2862 
Q 544 3141 544 3541 
Q 544 4100 942 4425 
Q 1341 4750 2034 4750 
Q 2731 4750 3128 4425 
Q 3525 4100 3525 3541 
Q 3525 3141 3298 2862 
Q 3072 2584 2669 2484 
Q 3125 2378 3379 2068 
Q 3634 1759 3634 1313 
Q 3634 634 3220 271 
Q 2806 -91 2034 -91 
Q 1263 -91 848 271 
Q 434 634 434 1313 
Q 434 1759 690 2068 
Q 947 2378 1403 2484 
z
M 1172 3481 
Q 1172 3119 1398 2916 
Q 1625 2713 2034 2713 
Q 2441 2713 2670 2916 
Q 2900 3119 2900 3481 
Q 2900 3844 2670 4047 
Q 2441 4250 2034 4250 
Q 1625 4250 1398 4047 
Q 1172 3844 1172 3481 
z
" transform="scale(0.015625)"/>
       </defs>
       <use xlink:href="#DejaVuSans-31"/>
       <use xlink:href="#DejaVuSans-2e" x="63.623047"/>
       <use xlink:href="#DejaVuSans-38" x="95.410156"/>
      </g>
     </g>
    </g>
    <g id="xtick_3">
     <g id="line2d_3">
      <g>
       <use xlink:href="#m0940321a9e" x="161.28" y="256.32" style="stroke: #000000; stroke-width: 0.8"/>
      </g>
     </g>
     <g id="text_3">
      <!-- 1.6 -->
      <g transform="translate(153.328437 270.918437) scale(0.1 -0.1)">
       <defs>
        <path id="DejaVuSans-36" d="M 2113 2584 
Q 1688 2584 1439 2293 
Q 1191 2003 1191 1497 
Q 1191 994 1439 701 
Q 1688 409 2113 409 
Q 2538 409 2786 701 
Q 3034 994 3034 1497 
Q 3034 2003 2786 2293 
Q 2538 2584 2113 2584 
z
M 3366 4563 
L 3366 3988 
Q 3128 4100 2886 4159 
Q 2644 4219 2406 4219 
Q 1781 4219 1451 3797 
Q 1122 3375 1075 2522 
Q 1259 2794 1537 2939 
Q 1816 3084 2150 3084 
Q 2853 3084 3261 2657 
Q 3669 2231 3669 1497 
Q 3669 778 3244 343 
Q 2819 -91 2113 -91 
Q 1303 -91 875 529 
Q 447 1150 447 2328 
Q 447 3434 972 4092 
Q 1497 4750 2381 4750 
Q 2619 4750 2861 4703 
Q 3103 4656 3366 4563 
z
" transform="scale(0.015625)"/>
       </defs>
       <use xlink:href="#DejaVuSans-31"/>
       <use xlink:href="#DejaVuSans-2e" x="63.623047"/>
       <use xlink:href="#DejaVuSans-36" x="95.410156"/>
      </g>
     </g>
    </g>
    <g id="xtick_4">
     <g id="line2d_4">
      <g>
       <use xlink:href="#m0940321a9e" x="205.92" y="256.32" style="stroke: #000000; stroke-width: 0.8"/>
      </g>
     </g>
     <g id="text_4">
      <!-- 1.4 -->
      <g transform="translate(197.968438 270.918437) scale(0.1 -0.1)">
       <defs>
        <path id="DejaVuSans-34" d="M 2419 4116 
L 825 1625 
L 2419 1625 
L 2419 4116 
z
M 2253 4666 
L 3047 4666 
L 3047 1625 
L 3713 1625 
L 3713 1100 
L 3047 1100 
L 3047 0 
L 2419 0 
L 2419 1100 
L 313 1100 
L 313 1709 
L 2253 4666 
z
" transform="scale(0.015625)"/>
       </defs>
       <use xlink:href="#DejaVuSans-31"/>
       <use xlink:href="#DejaVuSans-2e" x="63.623047"/>
       <use xlink:href="#DejaVuSans-34" x="95.410156"/>
      </g>
     </g>
    </g>
    <g id="xtick_5">
     <g id="line2d_5">
      <g>
       <use xlink:href="#m0940321a9e" x="250.56" y="256.32" style="stroke: #000000; stroke-width: 0.8"/>
      </g>
     </g>
     <g id="text_5">
      <!-- 1.2 -->
      <g transform="translate(242.608438 270.918437) scale(0.1 -0.1)">
       <use xlink:href="#DejaVuSans-31"/>
       <use xlink:href="#DejaVuSans-2e" x="63.623047"/>
       <use xlink:href="#DejaVuSans-32" x="95.410156"/>
      </g>
     </g>
    </g>
    <g id="xtick_6">
     <g id="line2d_6">
      <g>
       <use xlink:href="#m0940321a9e" x="295.2" y="256.32" style="stroke: #000000; stroke-width: 0.8"/>
      </g>
     </g>
     <g id="text_6">
      <!-- 1.0 -->
      <g transform="translate(287.248437 270.918437) scale(0.1 -0.1)">
       <use xlink:href="#DejaVuSans-31"/>
       <use xlink:href="#DejaVuSans-2e" x="63.623047"/>
       <use xlink:href="#DejaVuSans-30" x="95.410156"/>
      </g>
     </g>
    </g>
    <g id="xtick_7">
     <g id="line2d_7">
      <g>
       <use xlink:href="#m0940321a9e" x="339.84" y="256.32" style="stroke: #000000; stroke-width: 0.8"/>
      </g>
     </g>
     <g id="text_7">
      <!-- 0.8 -->
      <g transform="translate(331.888437 270.918437) scale(0.1 -0.1)">
       <use xlink:href="#DejaVuSans-30"/>
       <use xlink:href="#DejaVuSans-2e" x="63.623047"/>
       <use xlink:href="#DejaVuSans-38" x="95.410156"/>
      </g>
     </g>
    </g>
    <g id="xtick_8">
     <g id="line2d_8">
      <g>
       <use xlink:href="#m0940321a9e" x="384.48" y="256.32" style="stroke: #000000; stroke-width: 0.8"/>
      </g>
     </g>
     <g id="text_8">
      <!-- 0.6 -->
      <g transform="translate(376.528437 270.918437) scale(0.1 -0.1)">
       <use xlink:href="#DejaVuSans-30"/>
       <use xlink:href="#DejaVuSans-2e" x="63.623047"/>
       <use xlink:href="#DejaVuSans-36" x="95.410156"/>
      </g>
     </g>
    </g>
    <g id="xtick_9">
     <g id="line2d_9">
      <g>
       <use xlink:href="#m0940321a9e" x="429.12" y="256.32" style="stroke: #000000; stroke-width: 0.8"/>
      </g>
     </g>
     <g id="text_9">
      <!-- 0.4 -->
      <g transform="translate(421.168437 270.918437) scale(0.1 -0.1)">
       <use xlink:href="#DejaVuSans-30"/>
       <use xlink:href="#DejaVuSans-2e" x="63.623047"/>
       <use xlink:href="#DejaVuSans-34" x="95.410156"/>
      </g>
     </g>
    </g>
    <g id="xtick_10">
     <g id="line2d_10">
      <g>
       <use xlink:href="#m0940321a9e" x="473.76" y="256.32" style="stroke: #000000; stroke-width: 0.8"/>
      </g>
     </g>
     <g id="text_10">
      <!-- 0.2 -->
      <g transform="translate(465.808437 270.918437) scale(0.1 -0.1)">
       <use xlink:href="#DejaVuSans-30"/>
       <use xlink:href="#DejaVuSans-2e" x="63.623047"/>
       <use xlink:href="#DejaVuSans-32" x="95.410156"/>
      </g>
     </g>
    </g>
    <g id="text_11">
     <!-- Total emission limit factor -->
     <g transform="translate(230.947656 284.596563) scale(0.1 -0.1)">
      <defs>
       <path id="DejaVuSans-54" d="M -19 4666 
L 3928 4666 
L 3928 4134 
L 2272 4134 
L 2272 0 
L 1638 0 
L 1638 4134 
L -19 4134 
L -19 4666 
z
" transform="scale(0.015625)"/>
       <path id="DejaVuSans-6f" d="M 1959 3097 
Q 1497 3097 1228 2736 
Q 959 2375 959 1747 
Q 959 1119 1226 758 
Q 1494 397 1959 397 
Q 2419 397 2687 759 
Q 2956 1122 2956 1747 
Q 2956 2369 2687 2733 
Q 2419 3097 1959 3097 
z
M 1959 3584 
Q 2709 3584 3137 3096 
Q 3566 2609 3566 1747 
Q 3566 888 3137 398 
Q 2709 -91 1959 -91 
Q 1206 -91 779 398 
Q 353 888 353 1747 
Q 353 2609 779 3096 
Q 1206 3584 1959 3584 
z
" transform="scale(0.015625)"/>
       <path id="DejaVuSans-74" d="M 1172 4494 
L 1172 3500 
L 2356 3500 
L 2356 3053 
L 1172 3053 
L 1172 1153 
Q 1172 725 1289 603 
Q 1406 481 1766 481 
L 2356 481 
L 2356 0 
L 1766 0 
Q 1100 0 847 248 
Q 594 497 594 1153 
L 594 3053 
L 172 3053 
L 172 3500 
L 594 3500 
L 594 4494 
L 1172 4494 
z
" transform="scale(0.015625)"/>
       <path id="DejaVuSans-61" d="M 2194 1759 
Q 1497 1759 1228 1600 
Q 959 1441 959 1056 
Q 959 750 1161 570 
Q 1363 391 1709 391 
Q 2188 391 2477 730 
Q 2766 1069 2766 1631 
L 2766 1759 
L 2194 1759 
z
M 3341 1997 
L 3341 0 
L 2766 0 
L 2766 531 
Q 2569 213 2275 61 
Q 1981 -91 1556 -91 
Q 1019 -91 701 211 
Q 384 513 384 1019 
Q 384 1609 779 1909 
Q 1175 2209 1959 2209 
L 2766 2209 
L 2766 2266 
Q 2766 2663 2505 2880 
Q 2244 3097 1772 3097 
Q 1472 3097 1187 3025 
Q 903 2953 641 2809 
L 641 3341 
Q 956 3463 1253 3523 
Q 1550 3584 1831 3584 
Q 2591 3584 2966 3190 
Q 3341 2797 3341 1997 
z
" transform="scale(0.015625)"/>
       <path id="DejaVuSans-6c" d="M 603 4863 
L 1178 4863 
L 1178 0 
L 603 0 
L 603 4863 
z
" transform="scale(0.015625)"/>
       <path id="DejaVuSans-20" transform="scale(0.015625)"/>
       <path id="DejaVuSans-65" d="M 3597 1894 
L 3597 1613 
L 953 1613 
Q 991 1019 1311 708 
Q 1631 397 2203 397 
Q 2534 397 2845 478 
Q 3156 559 3463 722 
L 3463 178 
Q 3153 47 2828 -22 
Q 2503 -91 2169 -91 
Q 1331 -91 842 396 
Q 353 884 353 1716 
Q 353 2575 817 3079 
Q 1281 3584 2069 3584 
Q 2775 3584 3186 3129 
Q 3597 2675 3597 1894 
z
M 3022 2063 
Q 3016 2534 2758 2815 
Q 2500 3097 2075 3097 
Q 1594 3097 1305 2825 
Q 1016 2553 972 2059 
L 3022 2063 
z
" transform="scale(0.015625)"/>
       <path id="DejaVuSans-6d" d="M 3328 2828 
Q 3544 3216 3844 3400 
Q 4144 3584 4550 3584 
Q 5097 3584 5394 3201 
Q 5691 2819 5691 2113 
L 5691 0 
L 5113 0 
L 5113 2094 
Q 5113 2597 4934 2840 
Q 4756 3084 4391 3084 
Q 3944 3084 3684 2787 
Q 3425 2491 3425 1978 
L 3425 0 
L 2847 0 
L 2847 2094 
Q 2847 2600 2669 2842 
Q 2491 3084 2119 3084 
Q 1678 3084 1418 2786 
Q 1159 2488 1159 1978 
L 1159 0 
L 581 0 
L 581 3500 
L 1159 3500 
L 1159 2956 
Q 1356 3278 1631 3431 
Q 1906 3584 2284 3584 
Q 2666 3584 2933 3390 
Q 3200 3197 3328 2828 
z
" transform="scale(0.015625)"/>
       <path id="DejaVuSans-69" d="M 603 3500 
L 1178 3500 
L 1178 0 
L 603 0 
L 603 3500 
z
M 603 4863 
L 1178 4863 
L 1178 4134 
L 603 4134 
L 603 4863 
z
" transform="scale(0.015625)"/>
       <path id="DejaVuSans-73" d="M 2834 3397 
L 2834 2853 
Q 2591 2978 2328 3040 
Q 2066 3103 1784 3103 
Q 1356 3103 1142 2972 
Q 928 2841 928 2578 
Q 928 2378 1081 2264 
Q 1234 2150 1697 2047 
L 1894 2003 
Q 2506 1872 2764 1633 
Q 3022 1394 3022 966 
Q 3022 478 2636 193 
Q 2250 -91 1575 -91 
Q 1294 -91 989 -36 
Q 684 19 347 128 
L 347 722 
Q 666 556 975 473 
Q 1284 391 1588 391 
Q 1994 391 2212 530 
Q 2431 669 2431 922 
Q 2431 1156 2273 1281 
Q 2116 1406 1581 1522 
L 1381 1569 
Q 847 1681 609 1914 
Q 372 2147 372 2553 
Q 372 3047 722 3315 
Q 1072 3584 1716 3584 
Q 2034 3584 2315 3537 
Q 2597 3491 2834 3397 
z
" transform="scale(0.015625)"/>
       <path id="DejaVuSans-6e" d="M 3513 2113 
L 3513 0 
L 2938 0 
L 2938 2094 
Q 2938 2591 2744 2837 
Q 2550 3084 2163 3084 
Q 1697 3084 1428 2787 
Q 1159 2491 1159 1978 
L 1159 0 
L 581 0 
L 581 3500 
L 1159 3500 
L 1159 2956 
Q 1366 3272 1645 3428 
Q 1925 3584 2291 3584 
Q 2894 3584 3203 3211 
Q 3513 2838 3513 2113 
z
" transform="scale(0.015625)"/>
       <path id="DejaVuSans-66" d="M 2375 4863 
L 2375 4384 
L 1825 4384 
Q 1516 4384 1395 4259 
Q 1275 4134 1275 3809 
L 1275 3500 
L 2222 3500 
L 2222 3053 
L 1275 3053 
L 1275 0 
L 697 0 
L 697 3053 
L 147 3053 
L 147 3500 
L 697 3500 
L 697 3744 
Q 697 4328 969 4595 
Q 1241 4863 1831 4863 
L 2375 4863 
z
" transform="scale(0.015625)"/>
       <path id="DejaVuSans-63" d="M 3122 3366 
L 3122 2828 
Q 2878 2963 2633 3030 
Q 2388 3097 2138 3097 
Q 1578 3097 1268 2742 
Q 959 2388 959 1747 
Q 959 1106 1268 751 
Q 1578 397 2138 397 
Q 2388 397 2633 464 
Q 2878 531 3122 666 
L 3122 134 
Q 2881 22 2623 -34 
Q 2366 -91 2075 -91 
Q 1284 -91 818 406 
Q 353 903 353 1747 
Q 353 2603 823 3093 
Q 1294 3584 2113 3584 
Q 2378 3584 2631 3529 
Q 2884 3475 3122 3366 
z
" transform="scale(0.015625)"/>
       <path id="DejaVuSans-72" d="M 2631 2963 
Q 2534 3019 2420 3045 
Q 2306 3072 2169 3072 
Q 1681 3072 1420 2755 
Q 1159 2438 1159 1844 
L 1159 0 
L 581 0 
L 581 3500 
L 1159 3500 
L 1159 2956 
Q 1341 3275 1631 3429 
Q 1922 3584 2338 3584 
Q 2397 3584 2469 3576 
Q 2541 3569 2628 3553 
L 2631 2963 
z
" transform="scale(0.015625)"/>
      </defs>
      <use xlink:href="#DejaVuSans-54"/>
      <use xlink:href="#DejaVuSans-6f" x="44.083984"/>
      <use xlink:href="#DejaVuSans-74" x="105.265625"/>
      <use xlink:href="#DejaVuSans-61" x="144.474609"/>
      <use xlink:href="#DejaVuSans-6c" x="205.753906"/>
      <use xlink:href="#DejaVuSans-20" x="233.537109"/>
      <use xlink:href="#DejaVuSans-65" x="265.324219"/>
      <use xlink:href="#DejaVuSans-6d" x="326.847656"/>
      <use xlink:href="#DejaVuSans-69" x="424.259766"/>
      <use xlink:href="#DejaVuSans-73" x="452.042969"/>
      <use xlink:href="#DejaVuSans-73" x="504.142578"/>
      <use xlink:href="#DejaVuSans-69" x="556.242188"/>
      <use xlink:href="#DejaVuSans-6f" x="584.025391"/>
      <use xlink:href="#DejaVuSans-6e" x="645.207031"/>
      <use xlink:href="#DejaVuSans-20" x="708.585938"/>
      <use xlink:href="#DejaVuSans-6c" x="740.373047"/>
      <use xlink:href="#DejaVuSans-69" x="768.15625"/>
      <use xlink:href="#DejaVuSans-6d" x="795.939453"/>
      <use xlink:href="#DejaVuSans-69" x="893.351562"/>
      <use xlink:href="#DejaVuSans-74" x="921.134766"/>
      <use xlink:href="#DejaVuSans-20" x="960.34375"/>
      <use xlink:href="#DejaVuSans-66" x="992.130859"/>
      <use xlink:href="#DejaVuSans-61" x="1027.335938"/>
      <use xlink:href="#DejaVuSans-63" x="1088.615234"/>
      <use xlink:href="#DejaVuSans-74" x="1143.595703"/>
      <use xlink:href="#DejaVuSans-6f" x="1182.804688"/>
      <use xlink:href="#DejaVuSans-72" x="1243.986328"/>
     </g>
    </g>
   </g>
   <g id="matplotlib.axis_2">
    <g id="ytick_1">
     <g id="line2d_11">
      <defs>
       <path id="m3c2329e6b3" d="M 0 0 
L -3.5 0 
" style="stroke: #000000; stroke-width: 0.8"/>
      </defs>
      <g>
       <use xlink:href="#m3c2329e6b3" x="72" y="256.32" style="stroke: #000000; stroke-width: 0.8"/>
      </g>
     </g>
     <g id="text_12">
      <!-- 0 -->
      <g transform="translate(58.6375 260.119219) scale(0.1 -0.1)">
       <use xlink:href="#DejaVuSans-30"/>
      </g>
     </g>
    </g>
    <g id="ytick_2">
     <g id="line2d_12">
      <g>
       <use xlink:href="#m3c2329e6b3" x="72" y="223.221493" style="stroke: #000000; stroke-width: 0.8"/>
      </g>
     </g>
     <g id="text_13">
      <!-- 5000 -->
      <g transform="translate(39.55 227.020711) scale(0.1 -0.1)">
       <defs>
        <path id="DejaVuSans-35" d="M 691 4666 
L 3169 4666 
L 3169 4134 
L 1269 4134 
L 1269 2991 
Q 1406 3038 1543 3061 
Q 1681 3084 1819 3084 
Q 2600 3084 3056 2656 
Q 3513 2228 3513 1497 
Q 3513 744 3044 326 
Q 2575 -91 1722 -91 
Q 1428 -91 1123 -41 
Q 819 9 494 109 
L 494 744 
Q 775 591 1075 516 
Q 1375 441 1709 441 
Q 2250 441 2565 725 
Q 2881 1009 2881 1497 
Q 2881 1984 2565 2268 
Q 2250 2553 1709 2553 
Q 1456 2553 1204 2497 
Q 953 2441 691 2322 
L 691 4666 
z
" transform="scale(0.015625)"/>
       </defs>
       <use xlink:href="#DejaVuSans-35"/>
       <use xlink:href="#DejaVuSans-30" x="63.623047"/>
       <use xlink:href="#DejaVuSans-30" x="127.246094"/>
       <use xlink:href="#DejaVuSans-30" x="190.869141"/>
      </g>
     </g>
    </g>
    <g id="ytick_3">
     <g id="line2d_13">
      <g>
       <use xlink:href="#m3c2329e6b3" x="72" y="190.122985" style="stroke: #000000; stroke-width: 0.8"/>
      </g>
     </g>
     <g id="text_14">
      <!-- 10000 -->
      <g transform="translate(33.1875 193.922204) scale(0.1 -0.1)">
       <use xlink:href="#DejaVuSans-31"/>
       <use xlink:href="#DejaVuSans-30" x="63.623047"/>
       <use xlink:href="#DejaVuSans-30" x="127.246094"/>
       <use xlink:href="#DejaVuSans-30" x="190.869141"/>
       <use xlink:href="#DejaVuSans-30" x="254.492188"/>
      </g>
     </g>
    </g>
    <g id="ytick_4">
     <g id="line2d_14">
      <g>
       <use xlink:href="#m3c2329e6b3" x="72" y="157.024478" style="stroke: #000000; stroke-width: 0.8"/>
      </g>
     </g>
     <g id="text_15">
      <!-- 15000 -->
      <g transform="translate(33.1875 160.823696) scale(0.1 -0.1)">
       <use xlink:href="#DejaVuSans-31"/>
       <use xlink:href="#DejaVuSans-35" x="63.623047"/>
       <use xlink:href="#DejaVuSans-30" x="127.246094"/>
       <use xlink:href="#DejaVuSans-30" x="190.869141"/>
       <use xlink:href="#DejaVuSans-30" x="254.492188"/>
      </g>
     </g>
    </g>
    <g id="ytick_5">
     <g id="line2d_15">
      <g>
       <use xlink:href="#m3c2329e6b3" x="72" y="123.92597" style="stroke: #000000; stroke-width: 0.8"/>
      </g>
     </g>
     <g id="text_16">
      <!-- 20000 -->
      <g transform="translate(33.1875 127.725189) scale(0.1 -0.1)">
       <use xlink:href="#DejaVuSans-32"/>
       <use xlink:href="#DejaVuSans-30" x="63.623047"/>
       <use xlink:href="#DejaVuSans-30" x="127.246094"/>
       <use xlink:href="#DejaVuSans-30" x="190.869141"/>
       <use xlink:href="#DejaVuSans-30" x="254.492188"/>
      </g>
     </g>
    </g>
    <g id="ytick_6">
     <g id="line2d_16">
      <g>
       <use xlink:href="#m3c2329e6b3" x="72" y="90.827463" style="stroke: #000000; stroke-width: 0.8"/>
      </g>
     </g>
     <g id="text_17">
      <!-- 25000 -->
      <g transform="translate(33.1875 94.626681) scale(0.1 -0.1)">
       <use xlink:href="#DejaVuSans-32"/>
       <use xlink:href="#DejaVuSans-35" x="63.623047"/>
       <use xlink:href="#DejaVuSans-30" x="127.246094"/>
       <use xlink:href="#DejaVuSans-30" x="190.869141"/>
       <use xlink:href="#DejaVuSans-30" x="254.492188"/>
      </g>
     </g>
    </g>
    <g id="ytick_7">
     <g id="line2d_17">
      <g>
       <use xlink:href="#m3c2329e6b3" x="72" y="57.728955" style="stroke: #000000; stroke-width: 0.8"/>
      </g>
     </g>
     <g id="text_18">
      <!-- 30000 -->
      <g transform="translate(33.1875 61.528174) scale(0.1 -0.1)">
       <defs>
        <path id="DejaVuSans-33" d="M 2597 2516 
Q 3050 2419 3304 2112 
Q 3559 1806 3559 1356 
Q 3559 666 3084 287 
Q 2609 -91 1734 -91 
Q 1441 -91 1130 -33 
Q 819 25 488 141 
L 488 750 
Q 750 597 1062 519 
Q 1375 441 1716 441 
Q 2309 441 2620 675 
Q 2931 909 2931 1356 
Q 2931 1769 2642 2001 
Q 2353 2234 1838 2234 
L 1294 2234 
L 1294 2753 
L 1863 2753 
Q 2328 2753 2575 2939 
Q 2822 3125 2822 3475 
Q 2822 3834 2567 4026 
Q 2313 4219 1838 4219 
Q 1578 4219 1281 4162 
Q 984 4106 628 3988 
L 628 4550 
Q 988 4650 1302 4700 
Q 1616 4750 1894 4750 
Q 2613 4750 3031 4423 
Q 3450 4097 3450 3541 
Q 3450 3153 3228 2886 
Q 3006 2619 2597 2516 
z
" transform="scale(0.015625)"/>
       </defs>
       <use xlink:href="#DejaVuSans-33"/>
       <use xlink:href="#DejaVuSans-30" x="63.623047"/>
       <use xlink:href="#DejaVuSans-30" x="127.246094"/>
       <use xlink:href="#DejaVuSans-30" x="190.869141"/>
       <use xlink:href="#DejaVuSans-30" x="254.492188"/>
      </g>
     </g>
    </g>
    <g id="text_19">
     <!-- Power generated -->
     <g transform="translate(27.107812 187.969687) rotate(-90) scale(0.1 -0.1)">
      <defs>
       <path id="DejaVuSans-50" d="M 1259 4147 
L 1259 2394 
L 2053 2394 
Q 2494 2394 2734 2622 
Q 2975 2850 2975 3272 
Q 2975 3691 2734 3919 
Q 2494 4147 2053 4147 
L 1259 4147 
z
M 628 4666 
L 2053 4666 
Q 2838 4666 3239 4311 
Q 3641 3956 3641 3272 
Q 3641 2581 3239 2228 
Q 2838 1875 2053 1875 
L 1259 1875 
L 1259 0 
L 628 0 
L 628 4666 
z
" transform="scale(0.015625)"/>
       <path id="DejaVuSans-77" d="M 269 3500 
L 844 3500 
L 1563 769 
L 2278 3500 
L 2956 3500 
L 3675 769 
L 4391 3500 
L 4966 3500 
L 4050 0 
L 3372 0 
L 2619 2869 
L 1863 0 
L 1184 0 
L 269 3500 
z
" transform="scale(0.015625)"/>
       <path id="DejaVuSans-67" d="M 2906 1791 
Q 2906 2416 2648 2759 
Q 2391 3103 1925 3103 
Q 1463 3103 1205 2759 
Q 947 2416 947 1791 
Q 947 1169 1205 825 
Q 1463 481 1925 481 
Q 2391 481 2648 825 
Q 2906 1169 2906 1791 
z
M 3481 434 
Q 3481 -459 3084 -895 
Q 2688 -1331 1869 -1331 
Q 1566 -1331 1297 -1286 
Q 1028 -1241 775 -1147 
L 775 -588 
Q 1028 -725 1275 -790 
Q 1522 -856 1778 -856 
Q 2344 -856 2625 -561 
Q 2906 -266 2906 331 
L 2906 616 
Q 2728 306 2450 153 
Q 2172 0 1784 0 
Q 1141 0 747 490 
Q 353 981 353 1791 
Q 353 2603 747 3093 
Q 1141 3584 1784 3584 
Q 2172 3584 2450 3431 
Q 2728 3278 2906 2969 
L 2906 3500 
L 3481 3500 
L 3481 434 
z
" transform="scale(0.015625)"/>
       <path id="DejaVuSans-64" d="M 2906 2969 
L 2906 4863 
L 3481 4863 
L 3481 0 
L 2906 0 
L 2906 525 
Q 2725 213 2448 61 
Q 2172 -91 1784 -91 
Q 1150 -91 751 415 
Q 353 922 353 1747 
Q 353 2572 751 3078 
Q 1150 3584 1784 3584 
Q 2172 3584 2448 3432 
Q 2725 3281 2906 2969 
z
M 947 1747 
Q 947 1113 1208 752 
Q 1469 391 1925 391 
Q 2381 391 2643 752 
Q 2906 1113 2906 1747 
Q 2906 2381 2643 2742 
Q 2381 3103 1925 3103 
Q 1469 3103 1208 2742 
Q 947 2381 947 1747 
z
" transform="scale(0.015625)"/>
      </defs>
      <use xlink:href="#DejaVuSans-50"/>
      <use xlink:href="#DejaVuSans-6f" x="56.677734"/>
      <use xlink:href="#DejaVuSans-77" x="117.859375"/>
      <use xlink:href="#DejaVuSans-65" x="199.646484"/>
      <use xlink:href="#DejaVuSans-72" x="261.169922"/>
      <use xlink:href="#DejaVuSans-20" x="302.283203"/>
      <use xlink:href="#DejaVuSans-67" x="334.070312"/>
      <use xlink:href="#DejaVuSans-65" x="397.546875"/>
      <use xlink:href="#DejaVuSans-6e" x="459.070312"/>
      <use xlink:href="#DejaVuSans-65" x="522.449219"/>
      <use xlink:href="#DejaVuSans-72" x="583.972656"/>
      <use xlink:href="#DejaVuSans-61" x="625.085938"/>
      <use xlink:href="#DejaVuSans-74" x="686.365234"/>
      <use xlink:href="#DejaVuSans-65" x="725.574219"/>
      <use xlink:href="#DejaVuSans-64" x="787.097656"/>
     </g>
    </g>
   </g>
   <g id="patch_3">
    <path d="M 72 256.32 
L 72 34.56 
" style="fill: none; stroke: #000000; stroke-width: 0.8; stroke-linejoin: miter; stroke-linecap: square"/>
   </g>
   <g id="patch_4">
    <path d="M 518.4 256.32 
L 518.4 34.56 
" style="fill: none; stroke: #000000; stroke-width: 0.8; stroke-linejoin: miter; stroke-linecap: square"/>
   </g>
   <g id="patch_5">
    <path d="M 72 256.32 
L 518.4 256.32 
" style="fill: none; stroke: #000000; stroke-width: 0.8; stroke-linejoin: miter; stroke-linecap: square"/>
   </g>
   <g id="patch_6">
    <path d="M 72 34.56 
L 518.4 34.56 
" style="fill: none; stroke: #000000; stroke-width: 0.8; stroke-linejoin: miter; stroke-linecap: square"/>
   </g>
   <g id="legend_1">
    <g id="patch_7">
     <path d="M 81 117.950625 
L 340.86875 117.950625 
Q 342.86875 117.950625 342.86875 115.950625 
L 342.86875 43.56 
Q 342.86875 41.56 340.86875 41.56 
L 81 41.56 
Q 79 41.56 79 43.56 
L 79 115.950625 
Q 79 117.950625 81 117.950625 
z
" style="fill: #4c4c4c; opacity: 0.5; stroke: #4c4c4c; stroke-linejoin: miter"/>
    </g>
    <g id="patch_8">
     <path d="M 79 115.950625 
L 338.86875 115.950625 
Q 340.86875 115.950625 340.86875 113.950625 
L 340.86875 41.56 
Q 340.86875 39.56 338.86875 39.56 
L 79 39.56 
Q 77 39.56 77 41.56 
L 77 113.950625 
Q 77 115.950625 79 115.950625 
z
" style="fill: #ffffff; stroke: #cccccc; stroke-linejoin: miter"/>
    </g>
    <g id="patch_9">
     <path d="M 81 51.158437 
L 101 51.158437 
L 101 44.158437 
L 81 44.158437 
z
" style="fill: #754937"/>
    </g>
    <g id="text_20">
     <!-- CoalPowerPlant -->
     <g transform="translate(109 51.158437) scale(0.1 -0.1)">
      <defs>
       <path id="DejaVuSans-43" d="M 4122 4306 
L 4122 3641 
Q 3803 3938 3442 4084 
Q 3081 4231 2675 4231 
Q 1875 4231 1450 3742 
Q 1025 3253 1025 2328 
Q 1025 1406 1450 917 
Q 1875 428 2675 428 
Q 3081 428 3442 575 
Q 3803 722 4122 1019 
L 4122 359 
Q 3791 134 3420 21 
Q 3050 -91 2638 -91 
Q 1578 -91 968 557 
Q 359 1206 359 2328 
Q 359 3453 968 4101 
Q 1578 4750 2638 4750 
Q 3056 4750 3426 4639 
Q 3797 4528 4122 4306 
z
" transform="scale(0.015625)"/>
      </defs>
      <use xlink:href="#DejaVuSans-43"/>
      <use xlink:href="#DejaVuSans-6f" x="69.824219"/>
      <use xlink:href="#DejaVuSans-61" x="131.005859"/>
      <use xlink:href="#DejaVuSans-6c" x="192.285156"/>
      <use xlink:href="#DejaVuSans-50" x="220.068359"/>
      <use xlink:href="#DejaVuSans-6f" x="276.746094"/>
      <use xlink:href="#DejaVuSans-77" x="337.927734"/>
      <use xlink:href="#DejaVuSans-65" x="419.714844"/>
      <use xlink:href="#DejaVuSans-72" x="481.238281"/>
      <use xlink:href="#DejaVuSans-50" x="522.351562"/>
      <use xlink:href="#DejaVuSans-6c" x="582.654297"/>
      <use xlink:href="#DejaVuSans-61" x="610.4375"/>
      <use xlink:href="#DejaVuSans-6e" x="671.716797"/>
      <use xlink:href="#DejaVuSans-74" x="735.095703"/>
     </g>
    </g>
    <g id="patch_10">
     <path d="M 81 65.836562 
L 101 65.836562 
L 101 58.836562 
L 81 58.836562 
z
" style="fill: #e54213"/>
    </g>
    <g id="text_21">
     <!-- GasPowerPlant -->
     <g transform="translate(109 65.836562) scale(0.1 -0.1)">
      <defs>
       <path id="DejaVuSans-47" d="M 3809 666 
L 3809 1919 
L 2778 1919 
L 2778 2438 
L 4434 2438 
L 4434 434 
Q 4069 175 3628 42 
Q 3188 -91 2688 -91 
Q 1594 -91 976 548 
Q 359 1188 359 2328 
Q 359 3472 976 4111 
Q 1594 4750 2688 4750 
Q 3144 4750 3555 4637 
Q 3966 4525 4313 4306 
L 4313 3634 
Q 3963 3931 3569 4081 
Q 3175 4231 2741 4231 
Q 1884 4231 1454 3753 
Q 1025 3275 1025 2328 
Q 1025 1384 1454 906 
Q 1884 428 2741 428 
Q 3075 428 3337 486 
Q 3600 544 3809 666 
z
" transform="scale(0.015625)"/>
      </defs>
      <use xlink:href="#DejaVuSans-47"/>
      <use xlink:href="#DejaVuSans-61" x="77.490234"/>
      <use xlink:href="#DejaVuSans-73" x="138.769531"/>
      <use xlink:href="#DejaVuSans-50" x="190.869141"/>
      <use xlink:href="#DejaVuSans-6f" x="247.546875"/>
      <use xlink:href="#DejaVuSans-77" x="308.728516"/>
      <use xlink:href="#DejaVuSans-65" x="390.515625"/>
      <use xlink:href="#DejaVuSans-72" x="452.039062"/>
      <use xlink:href="#DejaVuSans-50" x="493.152344"/>
      <use xlink:href="#DejaVuSans-6c" x="553.455078"/>
      <use xlink:href="#DejaVuSans-61" x="581.238281"/>
      <use xlink:href="#DejaVuSans-6e" x="642.517578"/>
      <use xlink:href="#DejaVuSans-74" x="705.896484"/>
     </g>
    </g>
    <g id="patch_11">
     <path d="M 81 80.514687 
L 101 80.514687 
L 101 73.514687 
L 81 73.514687 
z
" style="fill: #472111"/>
    </g>
    <g id="text_22">
     <!-- CoalCHPPlant -->
     <g transform="translate(109 80.514687) scale(0.1 -0.1)">
      <defs>
       <path id="DejaVuSans-48" d="M 628 4666 
L 1259 4666 
L 1259 2753 
L 3553 2753 
L 3553 4666 
L 4184 4666 
L 4184 0 
L 3553 0 
L 3553 2222 
L 1259 2222 
L 1259 0 
L 628 0 
L 628 4666 
z
" transform="scale(0.015625)"/>
      </defs>
      <use xlink:href="#DejaVuSans-43"/>
      <use xlink:href="#DejaVuSans-6f" x="69.824219"/>
      <use xlink:href="#DejaVuSans-61" x="131.005859"/>
      <use xlink:href="#DejaVuSans-6c" x="192.285156"/>
      <use xlink:href="#DejaVuSans-43" x="220.068359"/>
      <use xlink:href="#DejaVuSans-48" x="289.892578"/>
      <use xlink:href="#DejaVuSans-50" x="365.087891"/>
      <use xlink:href="#DejaVuSans-50" x="425.390625"/>
      <use xlink:href="#DejaVuSans-6c" x="485.693359"/>
      <use xlink:href="#DejaVuSans-61" x="513.476562"/>
      <use xlink:href="#DejaVuSans-6e" x="574.755859"/>
      <use xlink:href="#DejaVuSans-74" x="638.134766"/>
     </g>
    </g>
    <g id="patch_12">
     <path d="M 81 95.192813 
L 101 95.192813 
L 101 88.192813 
L 81 88.192813 
z
" style="fill: #880000"/>
    </g>
    <g id="text_23">
     <!-- GasCHPPlant -->
     <g transform="translate(109 95.192813) scale(0.1 -0.1)">
      <use xlink:href="#DejaVuSans-47"/>
      <use xlink:href="#DejaVuSans-61" x="77.490234"/>
      <use xlink:href="#DejaVuSans-73" x="138.769531"/>
      <use xlink:href="#DejaVuSans-43" x="190.869141"/>
      <use xlink:href="#DejaVuSans-48" x="260.693359"/>
      <use xlink:href="#DejaVuSans-50" x="335.888672"/>
      <use xlink:href="#DejaVuSans-50" x="396.191406"/>
      <use xlink:href="#DejaVuSans-6c" x="456.494141"/>
      <use xlink:href="#DejaVuSans-61" x="484.277344"/>
      <use xlink:href="#DejaVuSans-6e" x="545.556641"/>
      <use xlink:href="#DejaVuSans-74" x="608.935547"/>
     </g>
    </g>
    <g id="patch_13">
     <path d="M 81 109.870937 
L 101 109.870937 
L 101 102.870937 
L 81 102.870937 
z
" style="fill: #282828"/>
    </g>
    <g id="text_24">
     <!-- CoalPowerPlantCC -->
     <g transform="translate(109 109.870937) scale(0.1 -0.1)">
      <use xlink:href="#DejaVuSans-43"/>
      <use xlink:href="#DejaVuSans-6f" x="69.824219"/>
      <use xlink:href="#DejaVuSans-61" x="131.005859"/>
      <use xlink:href="#DejaVuSans-6c" x="192.285156"/>
      <use xlink:href="#DejaVuSans-50" x="220.068359"/>
      <use xlink:href="#DejaVuSans-6f" x="276.746094"/>
      <use xlink:href="#DejaVuSans-77" x="337.927734"/>
      <use xlink:href="#DejaVuSans-65" x="419.714844"/>
      <use xlink:href="#DejaVuSans-72" x="481.238281"/>
      <use xlink:href="#DejaVuSans-50" x="522.351562"/>
      <use xlink:href="#DejaVuSans-6c" x="582.654297"/>
      <use xlink:href="#DejaVuSans-61" x="610.4375"/>
      <use xlink:href="#DejaVuSans-6e" x="671.716797"/>
      <use xlink:href="#DejaVuSans-74" x="735.095703"/>
      <use xlink:href="#DejaVuSans-43" x="774.304688"/>
      <use xlink:href="#DejaVuSans-43" x="844.128906"/>
     </g>
    </g>
    <g id="patch_14">
     <path d="M 220.395312 51.158437 
L 240.395312 51.158437 
L 240.395312 44.158437 
L 220.395312 44.158437 
z
" style="fill: #3c3c3c"/>
    </g>
    <g id="text_25">
     <!-- GasPowerPlantCC -->
     <g transform="translate(248.395312 51.158437) scale(0.1 -0.1)">
      <use xlink:href="#DejaVuSans-47"/>
      <use xlink:href="#DejaVuSans-61" x="77.490234"/>
      <use xlink:href="#DejaVuSans-73" x="138.769531"/>
      <use xlink:href="#DejaVuSans-50" x="190.869141"/>
      <use xlink:href="#DejaVuSans-6f" x="247.546875"/>
      <use xlink:href="#DejaVuSans-77" x="308.728516"/>
      <use xlink:href="#DejaVuSans-65" x="390.515625"/>
      <use xlink:href="#DejaVuSans-72" x="452.039062"/>
      <use xlink:href="#DejaVuSans-50" x="493.152344"/>
      <use xlink:href="#DejaVuSans-6c" x="553.455078"/>
      <use xlink:href="#DejaVuSans-61" x="581.238281"/>
      <use xlink:href="#DejaVuSans-6e" x="642.517578"/>
      <use xlink:href="#DejaVuSans-74" x="705.896484"/>
      <use xlink:href="#DejaVuSans-43" x="745.105469"/>
      <use xlink:href="#DejaVuSans-43" x="814.929688"/>
     </g>
    </g>
    <g id="patch_15">
     <path d="M 220.395312 65.836562 
L 240.395312 65.836562 
L 240.395312 58.836562 
L 220.395312 58.836562 
z
" style="fill: #9e9e9e"/>
    </g>
    <g id="text_26">
     <!-- CoalCHPPlantCC -->
     <g transform="translate(248.395312 65.836562) scale(0.1 -0.1)">
      <use xlink:href="#DejaVuSans-43"/>
      <use xlink:href="#DejaVuSans-6f" x="69.824219"/>
      <use xlink:href="#DejaVuSans-61" x="131.005859"/>
      <use xlink:href="#DejaVuSans-6c" x="192.285156"/>
      <use xlink:href="#DejaVuSans-43" x="220.068359"/>
      <use xlink:href="#DejaVuSans-48" x="289.892578"/>
      <use xlink:href="#DejaVuSans-50" x="365.087891"/>
      <use xlink:href="#DejaVuSans-50" x="425.390625"/>
      <use xlink:href="#DejaVuSans-6c" x="485.693359"/>
      <use xlink:href="#DejaVuSans-61" x="513.476562"/>
      <use xlink:href="#DejaVuSans-6e" x="574.755859"/>
      <use xlink:href="#DejaVuSans-74" x="638.134766"/>
      <use xlink:href="#DejaVuSans-43" x="677.34375"/>
      <use xlink:href="#DejaVuSans-43" x="747.167969"/>
     </g>
    </g>
    <g id="patch_16">
     <path d="M 220.395312 80.514687 
L 240.395312 80.514687 
L 240.395312 73.514687 
L 220.395312 73.514687 
z
" style="fill: #686868"/>
    </g>
    <g id="text_27">
     <!-- GasCHPPlantCC -->
     <g transform="translate(248.395312 80.514687) scale(0.1 -0.1)">
      <use xlink:href="#DejaVuSans-47"/>
      <use xlink:href="#DejaVuSans-61" x="77.490234"/>
      <use xlink:href="#DejaVuSans-73" x="138.769531"/>
      <use xlink:href="#DejaVuSans-43" x="190.869141"/>
      <use xlink:href="#DejaVuSans-48" x="260.693359"/>
      <use xlink:href="#DejaVuSans-50" x="335.888672"/>
      <use xlink:href="#DejaVuSans-50" x="396.191406"/>
      <use xlink:href="#DejaVuSans-6c" x="456.494141"/>
      <use xlink:href="#DejaVuSans-61" x="484.277344"/>
      <use xlink:href="#DejaVuSans-6e" x="545.556641"/>
      <use xlink:href="#DejaVuSans-74" x="608.935547"/>
      <use xlink:href="#DejaVuSans-43" x="648.144531"/>
      <use xlink:href="#DejaVuSans-43" x="717.96875"/>
     </g>
    </g>
    <g id="patch_17">
     <path d="M 220.395312 95.192813 
L 240.395312 95.192813 
L 240.395312 88.192813 
L 220.395312 88.192813 
z
"/>
    </g>
    <g id="text_28">
     <!-- BECCS -->
     <g transform="translate(248.395312 95.192813) scale(0.1 -0.1)">
      <defs>
       <path id="DejaVuSans-42" d="M 1259 2228 
L 1259 519 
L 2272 519 
Q 2781 519 3026 730 
Q 3272 941 3272 1375 
Q 3272 1813 3026 2020 
Q 2781 2228 2272 2228 
L 1259 2228 
z
M 1259 4147 
L 1259 2741 
L 2194 2741 
Q 2656 2741 2882 2914 
Q 3109 3088 3109 3444 
Q 3109 3797 2882 3972 
Q 2656 4147 2194 4147 
L 1259 4147 
z
M 628 4666 
L 2241 4666 
Q 2963 4666 3353 4366 
Q 3744 4066 3744 3513 
Q 3744 3084 3544 2831 
Q 3344 2578 2956 2516 
Q 3422 2416 3680 2098 
Q 3938 1781 3938 1306 
Q 3938 681 3513 340 
Q 3088 0 2303 0 
L 628 0 
L 628 4666 
z
" transform="scale(0.015625)"/>
       <path id="DejaVuSans-45" d="M 628 4666 
L 3578 4666 
L 3578 4134 
L 1259 4134 
L 1259 2753 
L 3481 2753 
L 3481 2222 
L 1259 2222 
L 1259 531 
L 3634 531 
L 3634 0 
L 628 0 
L 628 4666 
z
" transform="scale(0.015625)"/>
       <path id="DejaVuSans-53" d="M 3425 4513 
L 3425 3897 
Q 3066 4069 2747 4153 
Q 2428 4238 2131 4238 
Q 1616 4238 1336 4038 
Q 1056 3838 1056 3469 
Q 1056 3159 1242 3001 
Q 1428 2844 1947 2747 
L 2328 2669 
Q 3034 2534 3370 2195 
Q 3706 1856 3706 1288 
Q 3706 609 3251 259 
Q 2797 -91 1919 -91 
Q 1588 -91 1214 -16 
Q 841 59 441 206 
L 441 856 
Q 825 641 1194 531 
Q 1563 422 1919 422 
Q 2459 422 2753 634 
Q 3047 847 3047 1241 
Q 3047 1584 2836 1778 
Q 2625 1972 2144 2069 
L 1759 2144 
Q 1053 2284 737 2584 
Q 422 2884 422 3419 
Q 422 4038 858 4394 
Q 1294 4750 2059 4750 
Q 2388 4750 2728 4690 
Q 3069 4631 3425 4513 
z
" transform="scale(0.015625)"/>
      </defs>
      <use xlink:href="#DejaVuSans-42"/>
      <use xlink:href="#DejaVuSans-45" x="68.603516"/>
      <use xlink:href="#DejaVuSans-43" x="131.787109"/>
      <use xlink:href="#DejaVuSans-43" x="201.611328"/>
      <use xlink:href="#DejaVuSans-53" x="271.435547"/>
     </g>
    </g>
   </g>
  </g>
 </g>
 <defs>
  <clipPath id="pa961dc4aaa">
   <rect x="72" y="34.56" width="446.4" height="221.76"/>
  </clipPath>
 </defs>
 <defs>
  <pattern id="h6a38f16a96" patternUnits="userSpaceOnUse" x="0" y="0" width="72" height="72">
   <rect x="0" y="0" width="73" height="73" fill="#ffffff"/>
   <path d="M -36 36 
L 36 -36 
M -32 40 
L 40 -32 
M -28 44 
L 44 -28 
M -24 48 
L 48 -24 
M -20 52 
L 52 -20 
M -16 56 
L 56 -16 
M -12 60 
L 60 -12 
M -8 64 
L 64 -8 
M -4 68 
L 68 -4 
M 0 72 
L 72 0 
M 4 76 
L 76 4 
M 8 80 
L 80 8 
M 12 84 
L 84 12 
M 16 88 
L 88 16 
M 20 92 
L 92 20 
M 24 96 
L 96 24 
M 28 100 
L 100 28 
M 32 104 
L 104 32 
M 36 108 
L 108 36 
" style="fill: #000000; stroke: #000000; stroke-width: 1.0; stroke-linecap: butt; stroke-linejoin: miter"/>
  </pattern>
 </defs>
</svg>
